<svg id="city" xmlns="http://www.w3.org/2000/svg" width="19.998" height="20" viewBox="0 0 19.998 20">
  <g id="Group_4" data-name="Group 4">
    <g id="Group_3" data-name="Group 3">
      <path id="Path_14" data-name="Path 14" d="M129.133,477.867H119.8a.333.333,0,0,0-.333.333v.667a.333.333,0,1,0,.667,0v-.333h9a.333.333,0,0,0,0-.667Z" transform="translate(-114.801 -459.2)"/>
      <path id="Path_15" data-name="Path 15" d="M187.733,155.933a.333.333,0,0,0,.333.333H189.4a.333.333,0,0,0,.333-.333v-2a.333.333,0,0,0-.333-.333h-1.333a.333.333,0,0,0-.333.333v2Zm.667-1.667h.667V155.6H188.4Z" transform="translate(-180.4 -147.6)"/>
      <path id="Path_16" data-name="Path 16" d="M4.333,102.4h-4a.333.333,0,0,0-.333.333V109.4a.333.333,0,1,0,.667,0v-6.333H4.333a.333.333,0,0,0,0-.667Z" transform="translate(0 -98.4)"/>
      <path id="Path_17" data-name="Path 17" d="M409.6,360.733a.333.333,0,0,0,.333.333h1.333a.333.333,0,0,0,.333-.333v-2a.333.333,0,0,0-.333-.333h-1.333a.333.333,0,0,0-.333.333Zm.667-1.667h.667V360.4h-.667Z" transform="translate(-393.602 -344.4)"/>
      <path id="Path_18" data-name="Path 18" d="M1.667,307.2C.019,307.2,0,311.49,0,311.533a1.669,1.669,0,0,0,1.333,1.633v1.7a.333.333,0,1,0,.667,0v-1.7a1.669,1.669,0,0,0,1.333-1.633C3.333,311.49,3.314,307.2,1.667,307.2Zm0,5.333a1,1,0,0,1-1-1c0-1.661.446-3.667,1-3.667s1,2.006,1,3.667A1,1,0,0,1,1.667,312.533Z" transform="translate(0 -295.2)"/>
      <path id="Path_19" data-name="Path 19" d="M52.867,256H51.533a.333.333,0,0,0-.333.333V257a.333.333,0,1,0,.667,0v-.333h.667v1.667a.333.333,0,1,0,.667,0v-2A.333.333,0,0,0,52.867,256Z" transform="translate(-49.2 -246)"/>
      <path id="Path_20" data-name="Path 20" d="M409.933,156.268h1.333a.333.333,0,0,0,.333-.333v-2a.333.333,0,0,0-.333-.333h-1.333a.333.333,0,0,0-.333.333v2A.333.333,0,0,0,409.933,156.268Zm.333-2h.667V155.6h-.667Z" transform="translate(-393.602 -147.601)"/>
      <path id="Path_21" data-name="Path 21" d="M52.867,153.6H51.533a.333.333,0,0,0-.333.333v2a.333.333,0,0,0,.333.333h1.333a.333.333,0,0,0,.333-.333v-2A.333.333,0,0,0,52.867,153.6Zm-.333,2h-.667v-1.333h.667V155.6Z" transform="translate(-49.2 -147.6)"/>
      <path id="Path_22" data-name="Path 22" d="M273.067,155.933a.333.333,0,0,0,.333.333h1.333a.333.333,0,0,0,.333-.333v-2a.333.333,0,0,0-.333-.333H273.4a.333.333,0,0,0-.333.333Zm.667-1.667h.667V155.6h-.667Z" transform="translate(-262.401 -147.6)"/>
      <path id="Path_23" data-name="Path 23" d="M396.867,102.4h-4a.333.333,0,0,0,0,.667h3.666v13.395a.952.952,0,0,0-.5-.046,1.331,1.331,0,0,0-2.324,0,.979.979,0,0,0-.171-.015,1,1,0,0,0,0,2H396.2a1,1,0,0,0,1-1V102.733A.333.333,0,0,0,396.867,102.4Zm-.667,15.333h-2.666a.333.333,0,0,1,0-.667.329.329,0,0,1,.181.054.333.333,0,0,0,.505-.205.664.664,0,0,1,1.295,0,.333.333,0,0,0,.505.205.34.34,0,0,1,.514.279A.334.334,0,0,1,396.2,117.733Z" transform="translate(-377.202 -98.4)"/>
      <path id="Path_24" data-name="Path 24" d="M273.4,53.868h1.333a.333.333,0,0,0,.333-.333v-2a.333.333,0,0,0-.333-.333H273.4a.333.333,0,0,0-.333.333v2A.333.333,0,0,0,273.4,53.868Zm.333-2h.667V53.2h-.667Z" transform="translate(-262.401 -49.201)"/>
      <path id="Path_25" data-name="Path 25" d="M273.067,258.333a.333.333,0,0,0,.333.333h1.333a.333.333,0,0,0,.333-.333v-2a.333.333,0,0,0-.333-.333H273.4a.333.333,0,0,0-.333.333Zm.667-1.667h.667V258h-.667Z" transform="translate(-262.401 -246)"/>
      <path id="Path_26" data-name="Path 26" d="M188.067,53.868H189.4a.333.333,0,0,0,.333-.333v-2a.333.333,0,0,0-.333-.333h-1.333a.333.333,0,0,0-.333.333v2A.333.333,0,0,0,188.067,53.868Zm.333-2h.667V53.2H188.4Z" transform="translate(-180.401 -49.201)"/>
      <path id="Path_27" data-name="Path 27" d="M247.563,409.8a.333.333,0,1,0,.473,0A.35.35,0,0,0,247.563,409.8Z" transform="translate(-237.8 -393.702)"/>
      <path id="Path_28" data-name="Path 28" d="M187.733,258.333a.333.333,0,0,0,.333.333H189.4a.333.333,0,0,0,.333-.333v-2A.333.333,0,0,0,189.4,256h-1.333a.333.333,0,0,0-.333.333v2Zm.667-1.667h.667V258H188.4Z" transform="translate(-180.4 -246)"/>
      <path id="Path_29" data-name="Path 29" d="M170.667,358.733a.333.333,0,0,0,.333.333h1v3a.333.333,0,1,0,.667,0v-3h2.666v3a.333.333,0,1,0,.667,0v-3h1a.333.333,0,0,0,0-.667h-6A.333.333,0,0,0,170.667,358.733Z" transform="translate(-164.001 -344.4)"/>
      <path id="Path_30" data-name="Path 30" d="M409.6,258.333a.333.333,0,0,0,.333.333h1.333a.333.333,0,0,0,.333-.333v-2a.333.333,0,0,0-.333-.333h-1.333a.333.333,0,0,0-.333.333Zm.667-1.667h.667V258h-.667Z" transform="translate(-393.602 -246)"/>
      <path id="Path_31" data-name="Path 31" d="M145.533,0h-8.666a.333.333,0,0,0-.333.333V17.667a.333.333,0,1,0,.667,0v-17h8v17a.333.333,0,1,0,.667,0V.333A.333.333,0,0,0,145.533,0Z" transform="translate(-131.201)"/>
    </g>
  </g>
</svg>
