<svg xmlns="http://www.w3.org/2000/svg" width="19.656" height="19.995" viewBox="0 0 19.656 19.995">
  <g id="county" transform="translate(-3.339 1)">
    <g id="Group_68" data-name="Group 68" transform="translate(3.339 -1)">
      <g id="Group_67" data-name="Group 67" transform="translate(0 0)">
        <path id="Path_67" data-name="Path 67" d="M38.389,443.27a.32.32,0,0,0,.339-.339v-1.017a.339.339,0,1,0-.678,0v1.017A.32.32,0,0,0,38.389,443.27Z" transform="translate(-36.694 -424.292)"/>
        <path id="Path_68" data-name="Path 68" d="M73.1,443.27a.32.32,0,0,0,.339-.339v-1.017a.339.339,0,1,0-.678,0v1.017A.32.32,0,0,0,73.1,443.27Z" transform="translate(-70.051 -424.292)"/>
        <path id="Path_69" data-name="Path 69" d="M194.592,376.559a.32.32,0,0,0,.339-.339v-3.728a.339.339,0,1,0-.678,0v3.728A.32.32,0,0,0,194.592,376.559Z" transform="translate(-186.797 -357.58)"/>
        <path id="Path_70" data-name="Path 70" d="M229.3,376.559a.32.32,0,0,0,.339-.339v-3.728a.339.339,0,0,0-.678,0v3.728A.32.32,0,0,0,229.3,376.559Z" transform="translate(-220.154 -357.58)"/>
        <path id="Path_71" data-name="Path 71" d="M264.016,376.559a.32.32,0,0,0,.339-.339v-3.728a.339.339,0,1,0-.678,0v3.728A.32.32,0,0,0,264.016,376.559Z" transform="translate(-253.51 -357.58)"/>
        <path id="Path_72" data-name="Path 72" d="M298.728,376.559a.32.32,0,0,0,.339-.339v-3.728a.339.339,0,0,0-.678,0v3.728A.32.32,0,0,0,298.728,376.559Z" transform="translate(-286.866 -357.58)"/>
        <path id="Path_73" data-name="Path 73" d="M22.656,12.217H18.251V9.167h.339a.339.339,0,1,0,0-.678H16.9V5.439h.339a.339.339,0,0,0,0-.678H16.88a3.715,3.715,0,0,0-2.7-3.25V.356a.32.32,0,0,0-.339-.339h-.339V-.661A.32.32,0,0,0,13.167-1a.32.32,0,0,0-.339.339V.017h-.339a.32.32,0,0,0-.339.339V1.511a3.715,3.715,0,0,0-2.7,3.25H9.1a.339.339,0,0,0,0,.678h.339v3.05H7.745a.339.339,0,0,0,0,.678h.339v3.05H3.678a.32.32,0,0,0-.339.339v6.1A.32.32,0,0,0,3.678,19H22.656A.32.32,0,0,0,23,18.656v-6.1A.32.32,0,0,0,22.656,12.217Zm-15.251,6.1H4.017V12.9H7.406Zm2.033,0H8.084V12.9H9.439Zm0-6.1H8.761V9.167h.678ZM12.828.695h.678v.678h-.678Zm.339,1.356A3.036,3.036,0,0,1,16.2,4.761H10.136A3.036,3.036,0,0,1,13.167,2.05Zm-3.05,7.117h.678v3.05h-.678Zm6.1,9.15h-6.1V12.9h6.1Zm-4.745-6.1V9.167h.678v3.05Zm1.356,0V9.167h.678v3.05Zm1.356,0V9.167h.678v3.05Zm2.033,0h-.678V9.167h.678Zm0-3.728h-6.1V5.439h6.1Zm.678.678h.678v3.05H16.9Zm1.356,9.15H16.9V12.9h1.356Zm4.067,0H18.928V12.9h3.389Z" transform="translate(-3.339 1)"/>
        <path id="Path_74" data-name="Path 74" d="M420.22,443.27a.32.32,0,0,0,.339-.339v-1.017a.339.339,0,1,0-.678,0v1.017A.32.32,0,0,0,420.22,443.27Z" transform="translate(-403.614 -424.292)"/>
        <path id="Path_75" data-name="Path 75" d="M454.931,443.27a.32.32,0,0,0,.339-.339v-1.017a.339.339,0,1,0-.678,0v1.017A.32.32,0,0,0,454.931,443.27Z" transform="translate(-436.969 -424.292)"/>
        <path id="Path_76" data-name="Path 76" d="M133.507,442.932a.339.339,0,0,0,.678,0v-1.017a.339.339,0,1,0-.678,0Z" transform="translate(-128.424 -424.292)"/>
        <path id="Path_77" data-name="Path 77" d="M359.475,441.576a.32.32,0,0,0-.339.339v1.017a.339.339,0,0,0,.678,0v-1.017A.32.32,0,0,0,359.475,441.576Z" transform="translate(-345.241 -424.292)"/>
        <path id="Path_78" data-name="Path 78" d="M246.66,184.668a.34.34,0,0,0,.339-.339v-1.017a.339.339,0,0,0-.678,0v1.017A.32.32,0,0,0,246.66,184.668Z" transform="translate(-236.832 -175.788)"/>
        <path id="Path_79" data-name="Path 79" d="M281.373,184.668a.34.34,0,0,0,.339-.339v-1.017a.339.339,0,1,0-.678,0v1.017A.32.32,0,0,0,281.373,184.668Z" transform="translate(-270.189 -175.788)"/>
        <path id="Path_80" data-name="Path 80" d="M211.949,184.668a.34.34,0,0,0,.339-.339v-1.017a.339.339,0,0,0-.678,0v1.017A.32.32,0,0,0,211.949,184.668Z" transform="translate(-203.476 -175.788)"/>
      </g>
    </g>
  </g>
</svg>
