<svg id="dustbin" xmlns="http://www.w3.org/2000/svg" width="15.094" height="18" viewBox="0 0 15.094 18">
  <g id="Group_48" data-name="Group 48" transform="translate(0 0)">
    <g id="Group_47" data-name="Group 47" transform="translate(0 0)">
      <path id="Path_36" data-name="Path 36" d="M129.464,210.917a.281.281,0,1,1,.562,0v10.789a1.74,1.74,0,0,1-1.734,1.734h-8.719a1.74,1.74,0,0,1-1.734-1.734V210.917a.281.281,0,1,1,.562,0v10.789a1.177,1.177,0,0,0,1.171,1.172h8.719a1.178,1.178,0,0,0,1.171-1.171v-10.79Z" transform="translate(-116.386 -205.441)" fill="#fb3939"/>
      <path id="Path_37" data-name="Path 37" d="M257.621,223.854a.281.281,0,0,1-.562,0v-9.99a.281.281,0,0,1,.563,0Z" transform="translate(-252.171 -208.314)" fill="#fb3939"/>
      <path id="Path_38" data-name="Path 38" d="M354.078,223.854a.281.281,0,1,1-.562,0v-9.99a.281.281,0,1,1,.562,0Z" transform="translate(-346.25 -208.314)" fill="#fb3939"/>
      <path id="Path_39" data-name="Path 39" d="M450.559,223.854a.281.281,0,1,1-.562,0v-9.99a.281.281,0,1,1,.562,0v9.99Z" transform="translate(-440.352 -208.314)" fill="#fb3939"/>
      <path id="Path_40" data-name="Path 40" d="M250.969,1.734a.281.281,0,1,1-.562,0A1.739,1.739,0,0,1,252.141,0h2.18a1.741,1.741,0,0,1,1.734,1.734.281.281,0,1,1-.562,0A1.177,1.177,0,0,0,254.322.562h-2.18a1.177,1.177,0,0,0-1.173,1.172Z" transform="translate(-245.684 0)" fill="#fb3939"/>
      <path id="Path_41" data-name="Path 41" d="M59.927,103.108H73a1,1,0,0,1,.711.3h0a1,1,0,0,1,.3.711v.727a.281.281,0,0,1-.281.281H59.2a.281.281,0,0,1-.281-.281v-.727a1,1,0,0,1,.3-.711h0a1,1,0,0,1,.711-.3ZM73,103.671H59.927a.442.442,0,0,0-.314.13h0a.441.441,0,0,0-.13.314v.445H73.45v-.445a.442.442,0,0,0-.13-.314h0A.441.441,0,0,0,73,103.671Z" transform="translate(-58.919 -100.565)" fill="#fb3939"/>
    </g>
  </g>
</svg>
