<svg xmlns="http://www.w3.org/2000/svg" width="20" height="18" viewBox="0 0 20 18">
  <path id="department" d="M17.667,15.69V11.667H10.333V8.31a2.667,2.667,0,1,0-.667,0v3.356H2.333V15.69a2.667,2.667,0,1,0,.667,0V12.333H9.667V15.69a2.667,2.667,0,1,0,.667,0V12.333H17V15.69a2.667,2.667,0,1,0,.667,0ZM8,5.667a2,2,0,1,1,2,2A2,2,0,0,1,8,5.667ZM4.667,18.333a2,2,0,1,1-2-2A2,2,0,0,1,4.667,18.333Zm7.333,0a2,2,0,1,1-2-2A2,2,0,0,1,12,18.333Zm5.333,2a2,2,0,1,1,2-2A2,2,0,0,1,17.333,20.333Z" transform="translate(0 -3)"/>
</svg>
