<svg id="edit" xmlns="http://www.w3.org/2000/svg" width="19.973" height="19.872" viewBox="0 0 19.973 19.872">
  <path id="Path_34" data-name="Path 34" d="M18.434,49.707a.5.5,0,0,0-.5.5v4.417a1.494,1.494,0,0,1-1.492,1.492H2.487A1.494,1.494,0,0,1,.995,54.621V41.659a1.494,1.494,0,0,1,1.492-1.492H6.9a.5.5,0,0,0,0-.995H2.487A2.49,2.49,0,0,0,0,41.659V54.622a2.49,2.49,0,0,0,2.487,2.487H16.444a2.49,2.49,0,0,0,2.487-2.487V50.2a.5.5,0,0,0-.5-.5Zm0,0" transform="translate(0 -37.237)" fill="#ffbd23"/>
  <path id="Path_35" data-name="Path 35" d="M121.543.916a2.238,2.238,0,0,0-3.166,0L109.5,9.791a.5.5,0,0,0-.128.219l-1.167,4.213a.5.5,0,0,0,.612.612l4.213-1.167a.5.5,0,0,0,.219-.128l8.874-8.874a2.241,2.241,0,0,0,0-3.166Zm-10.956,9.2,7.263-7.263,2.342,2.342-7.263,7.263Zm-.468.939,1.871,1.872-2.589.717Zm11.3-7.091-.528.528-2.343-2.343.528-.528a1.243,1.243,0,0,1,1.758,0l.584.584A1.245,1.245,0,0,1,121.423,3.962Zm0,0" transform="translate(-102.809 -0.261)" fill="#ffbd23"/>
</svg>
