<svg xmlns="http://www.w3.org/2000/svg" width="19.512" height="20" viewBox="0 0 19.512 20">
  <path id="_1159641" data-name="1159641" d="M19.167,0H1.336A.838.838,0,0,0,.589.455a.849.849,0,0,0,.066.884l6.533,9.2.007.009a1.867,1.867,0,0,1,.366,1.107v7.5A.834.834,0,0,0,8.4,20a.859.859,0,0,0,.329-.066l3.671-1.4a.8.8,0,0,0,.547-.784V11.658a1.867,1.867,0,0,1,.366-1.107l.007-.009,6.532-9.2a.849.849,0,0,0,.066-.884A.838.838,0,0,0,19.167,0ZM12.49,9.949a2.89,2.89,0,0,0-.563,1.709v5.969L8.576,18.9V11.658a2.889,2.889,0,0,0-.564-1.709L1.671,1.015H18.832Zm0,0" transform="translate(-0.496 0)" fill="#318de9"/>
</svg>
