<svg xmlns="http://www.w3.org/2000/svg" width="18.333" height="20" viewBox="0 0 18.333 20">
  <path id="flag" d="M17.238,8.333l3.537-5.145a.333.333,0,0,0-.275-.522h-10V1.333A.333.333,0,0,0,10.167,1h-7V.333a.333.333,0,1,0-.667,0V19.667a.333.333,0,0,0,.667,0V11.333H6.842a1.649,1.649,0,0,0-.342,1A1.669,1.669,0,0,0,8.167,14H20.5a.333.333,0,0,0,.275-.522ZM3.167,1.667H9.833v9H3.167Zm5,11.667a1,1,0,1,1,0-2h2A.333.333,0,0,0,10.5,11V3.333h9.366L16.559,8.145a.334.334,0,0,0,0,.378l3.308,4.811Z" transform="translate(-2.5)"/>
</svg>
