<svg xmlns="http://www.w3.org/2000/svg" width="12.604" height="14.333" viewBox="0 0 12.604 14.333">
  <g id="sort" transform="translate(-25.165 0)" opacity="0.8">
    <g id="Group_51" data-name="Group 51" transform="translate(25.165 0)">
      <path id="Path_42" data-name="Path 42" d="M29.568,11.452a.586.586,0,0,0,.584-.584V.587a.581.581,0,0,0-.935-.467L25.4,2.982a.584.584,0,1,0,.7.935l2.882-2.161v9.113A.586.586,0,0,0,29.568,11.452Z" transform="translate(-25.165 0)" fill="#090909"/>
      <path id="Path_43" data-name="Path 43" d="M247.373,86.771a.586.586,0,0,0-.584.584V97.539a.6.6,0,0,0,.321.526.643.643,0,0,0,.263.058.583.583,0,0,0,.35-.117l3.816-2.814a.585.585,0,0,0-.691-.944l-2.891,2.132V87.355A.586.586,0,0,0,247.373,86.771Z" transform="translate(-239.174 -83.789)" fill="#090909"/>
    </g>
  </g>
</svg>
