<svg xmlns="http://www.w3.org/2000/svg" width="9.954" height="10.283" viewBox="0 0 9.954 10.283">
  <g id="Group_61" data-name="Group 61" transform="translate(0)">
    <path id="Path_62" data-name="Path 62" d="M116.048,5.142l4.05-4.05a.325.325,0,0,0,0-.474L119.583.1a.324.324,0,0,0-.474,0l-4.8,4.8a.324.324,0,0,0,0,.474l4.8,4.8a.324.324,0,0,0,.474,0l.515-.515a.324.324,0,0,0,0-.474Z" transform="translate(-110.247 0)" fill="#fff"/>
    <path id="Path_63" data-name="Path 63" d="M6.408,5.142l4.05-4.05a.324.324,0,0,0,0-.474L9.943.1a.324.324,0,0,0-.474,0l-4.8,4.8a.324.324,0,0,0,0,.474l4.8,4.8a.324.324,0,0,0,.474,0l.515-.515a.324.324,0,0,0,0-.474Z" transform="translate(-4.564 0)" fill="#fff"/>
  </g>
</svg>
