<svg id="chevron" xmlns="http://www.w3.org/2000/svg" width="9.954" height="10.283" viewBox="0 0 9.954 10.283">
  <g id="Group_61" data-name="Group 61" transform="translate(0)">
    <path id="Path_62" data-name="Path 62" d="M118.357,5.142l-4.05-4.049a.325.325,0,0,1,0-.474L114.822.1a.324.324,0,0,1,.474,0l4.8,4.8a.324.324,0,0,1,0,.474l-4.8,4.8a.324.324,0,0,1-.474,0l-.515-.515a.324.324,0,0,1,0-.474Z" transform="translate(-114.204 0)" fill="#fff"/>
    <path id="Path_63" data-name="Path 63" d="M8.716,5.142,4.667,1.092a.324.324,0,0,1,0-.474L5.182.1a.324.324,0,0,1,.474,0l4.8,4.8a.324.324,0,0,1,0,.474l-4.8,4.8a.324.324,0,0,1-.474,0l-.515-.515a.324.324,0,0,1,0-.474Z" transform="translate(-0.607 0)" fill="#fff"/>
  </g>
</svg>
