<svg id="edit" xmlns="http://www.w3.org/2000/svg" width="16.043" height="15.961" viewBox="0 0 16.043 15.961">
  <path id="Path_34" data-name="Path 34" d="M14.806,47.634a.4.4,0,0,0-.4.4v3.547a1.2,1.2,0,0,1-1.2,1.2H2a1.2,1.2,0,0,1-1.2-1.2V41.17a1.2,1.2,0,0,1,1.2-1.2H5.545a.4.4,0,0,0,0-.8H2a2,2,0,0,0-2,2V51.581a2,2,0,0,0,2,2h11.21a2,2,0,0,0,2-2V48.034a.4.4,0,0,0-.4-.4Zm0,0" transform="translate(0 -37.618)" fill="#ffbd23"/>
  <path id="Path_35" data-name="Path 35" d="M118.915.787a1.8,1.8,0,0,0-2.543,0l-7.128,7.128a.4.4,0,0,0-.1.176l-.937,3.384a.4.4,0,0,0,.492.492l3.384-.937a.4.4,0,0,0,.176-.1L119.384,3.8a1.8,1.8,0,0,0,0-2.543Zm-8.8,7.387,5.834-5.834,1.881,1.881L112,10.056Zm-.376.754,1.5,1.5-2.079.576Zm9.08-5.7-.424.424-1.882-1.882.424-.424a1,1,0,0,1,1.412,0l.469.469A1,1,0,0,1,118.819,3.234Zm0,0" transform="translate(-103.868 -0.261)" fill="#ffbd23"/>
</svg>
