<svg xmlns="http://www.w3.org/2000/svg" width="16.005" height="16.005" viewBox="0 0 16.005 16.005">
  <path id="warehouse" d="M13.192,0V3.782h-.938V.938H8.471V3.782H7.534V0H3.782V3.782H2.845V0H0V16H2.845v-.938H13.192V16H16V0ZM9.409,1.876h1.907V3.782H9.409ZM4.72.938H6.6V3.782H4.72ZM7.534,4.72h5.658v.938H2.845V4.72Zm0,2.813v4.72H6.6V9.409H3.782v2.845H2.845V6.6H13.192v5.658h-.938V7.534Zm3.782.938v3.782H8.471V8.471ZM5.658,10.347v1.907H4.72V10.347Zm-3.751,4.72H.938V.938h.969Zm.938-.938v-.938H13.192v.938Zm12.222.938h-.938V.938h.938Z" fill="#333"/>
</svg>
