<svg xmlns="http://www.w3.org/2000/svg" width="15.938" height="20.015" viewBox="0 0 15.938 20.015">
  <g id="list" transform="translate(-0.5 0)">
    <path id="Path_128" data-name="Path 128" d="M83.16,201.625H73.492a.293.293,0,0,0,0,.586H83.16a.293.293,0,0,0,0-.586Zm0,0" transform="translate(-69.857 -193.743)"/>
    <path id="Path_129" data-name="Path 129" d="M83.16,259.258H73.492a.293.293,0,0,0,0,.586H83.16a.293.293,0,0,0,0-.586Zm0,0" transform="translate(-69.857 -249.123)"/>
    <path id="Path_130" data-name="Path 130" d="M83.16,316.891H73.492a.293.293,0,0,0,0,.586H83.16a.293.293,0,0,0,0-.586Zm0,0" transform="translate(-69.857 -304.503)"/>
    <path id="Path_131" data-name="Path 131" d="M83.16,374.523H73.492a.293.293,0,0,0,0,.586H83.16a.293.293,0,0,0,0-.586Zm0,0" transform="translate(-69.857 -359.883)"/>
    <path id="Path_132" data-name="Path 132" d="M83.16,432.16H73.492a.293.293,0,1,0,0,.586H83.16a.293.293,0,1,0,0-.586Zm0,0" transform="translate(-69.857 -415.266)"/>
    <path id="Path_133" data-name="Path 133" d="M110.285,118.824v-.617a.293.293,0,0,0-.586,0v.617a.293.293,0,1,0,.586,0Zm0,0" transform="translate(-104.93 -113.305)"/>
    <path id="Path_134" data-name="Path 134" d="M284.586,118.824v-.617a.293.293,0,0,0-.586,0v.617a.293.293,0,0,0,.586,0Zm0,0" transform="translate(-272.418 -113.305)"/>
    <path id="Path_135" data-name="Path 135" d="M176.475,133.546a1.405,1.405,0,0,0,1.062-.472.293.293,0,0,0-.441-.386.843.843,0,0,1-1.24,0,.293.293,0,1,0-.442.386,1.406,1.406,0,0,0,1.062.472Zm0,0" transform="translate(-168.006 -127.405)"/>
    <path id="Path_136" data-name="Path 136" d="M2.3,196.814H14.64a1.8,1.8,0,0,0,1.8-1.8v-1.74a.293.293,0,0,0-.586,0v1.74a1.213,1.213,0,0,1-1.212,1.212H2.3a1.213,1.213,0,0,1-1.212-1.212V184.285a.293.293,0,0,0-.586,0v10.731a1.8,1.8,0,0,0,1.8,1.8Zm0,0" transform="translate(0 -176.799)"/>
    <path id="Path_137" data-name="Path 137" d="M.793,6.606a.293.293,0,0,0,.293-.293V3.23A1.213,1.213,0,0,1,2.3,2.018H2.31v.34a1.092,1.092,0,0,0,2.184,0v-.34H5.688v.34a1.092,1.092,0,1,0,2.184,0v-.34H9.066v.34a1.092,1.092,0,0,0,2.184,0v-.34h1.194v.34a1.092,1.092,0,0,0,2.184,0v-.34h.012A1.213,1.213,0,0,1,15.851,3.23V15.3a.293.293,0,0,0,.586,0V3.23a1.8,1.8,0,0,0-1.8-1.8h-.012v-.34a1.092,1.092,0,0,0-2.184,0v.34H11.249v-.34a1.092,1.092,0,0,0-2.184,0v.34H7.872v-.34a1.092,1.092,0,0,0-2.184,0v.34H4.494v-.34a1.092,1.092,0,0,0-2.184,0v.34H2.3A1.8,1.8,0,0,0,.5,3.23V6.313a.293.293,0,0,0,.293.293ZM13.03,1.092a.506.506,0,1,1,1.011,0V2.358a.506.506,0,1,1-1.011,0Zm-3.378,0a.506.506,0,1,1,1.011,0V2.358a.506.506,0,1,1-1.011,0Zm-3.378,0a.506.506,0,0,1,1.011,0V2.358a.506.506,0,1,1-1.011,0Zm-3.378,0a.506.506,0,1,1,1.011,0V2.358a.506.506,0,0,1-.506.506A.513.513,0,0,1,2.9,2.358Zm0,0" transform="translate(0)"/>
  </g>
</svg>
