<svg id="office" xmlns="http://www.w3.org/2000/svg" width="20" height="20" viewBox="0 0 20 20">
  <g id="Group_109" data-name="Group 109">
    <g id="Group_108" data-name="Group 108">
      <path id="Path_170" data-name="Path 170" d="M19.667,19.333h-2v-11A.333.333,0,0,0,17.333,8H12.667V.333A.333.333,0,0,0,12.333,0H3.667a.333.333,0,0,0-.333.333v19h-3a.333.333,0,1,0,0,.667H19.667a.333.333,0,0,0,0-.667ZM7,19.333H5.667v-3A.333.333,0,0,1,6,16h.667A.333.333,0,0,1,7,16.333Zm1.333-11v11H7.667v-3a1,1,0,0,0-1-1H6a1,1,0,0,0-1,1v3H4V.667h8V8H8.667A.333.333,0,0,0,8.333,8.333Zm8.667,11H9V8.667h8Z"/>
      <path id="Path_171" data-name="Path 171" d="M202.333,112h-2a.333.333,0,0,0-.333.333v2a.333.333,0,0,0,.333.333h2a.333.333,0,0,0,.333-.333v-2A.333.333,0,0,0,202.333,112ZM202,114h-1.333v-1.333H202Z" transform="translate(-191.667 -107.333)"/>
      <path id="Path_172" data-name="Path 172" d="M202.333,32h-2a.333.333,0,0,0-.333.333v2a.333.333,0,0,0,.333.333h2a.333.333,0,0,0,.333-.333v-2A.333.333,0,0,0,202.333,32ZM202,34h-1.333V32.667H202Z" transform="translate(-191.667 -30.667)"/>
      <path id="Path_173" data-name="Path 173" d="M122.333,112h-2a.333.333,0,0,0-.333.333v2a.333.333,0,0,0,.333.333h2a.333.333,0,0,0,.333-.333v-2A.333.333,0,0,0,122.333,112ZM122,114h-1.333v-1.333H122Z" transform="translate(-115 -107.333)"/>
      <path id="Path_174" data-name="Path 174" d="M122.333,32h-2a.333.333,0,0,0-.333.333v2a.333.333,0,0,0,.333.333h2a.333.333,0,0,0,.333-.333v-2A.333.333,0,0,0,122.333,32ZM122,34h-1.333V32.667H122Z" transform="translate(-115 -30.667)"/>
      <path id="Path_175" data-name="Path 175" d="M122.333,192h-2a.333.333,0,0,0-.333.333v2a.333.333,0,0,0,.333.333h2a.333.333,0,0,0,.333-.333v-2A.333.333,0,0,0,122.333,192ZM122,194h-1.333v-1.333H122Z" transform="translate(-115 -184)"/>
      <path id="Path_176" data-name="Path 176" d="M122.333,272h-2a.333.333,0,0,0-.333.333v2a.333.333,0,0,0,.333.333h2a.333.333,0,0,0,.333-.333v-2A.333.333,0,0,0,122.333,272ZM122,274h-1.333v-1.333H122Z" transform="translate(-115 -260.667)"/>
      <path id="Path_177" data-name="Path 177" d="M320.333,306.667h2a.333.333,0,0,0,.333-.333v-2a.333.333,0,0,0-.333-.333h-2a.333.333,0,0,0-.333.333v2A.333.333,0,0,0,320.333,306.667Zm.333-2H322V306h-1.333Z" transform="translate(-306.667 -291.333)"/>
      <path id="Path_178" data-name="Path 178" d="M320.333,226.667h2a.333.333,0,0,0,.333-.333v-2a.333.333,0,0,0-.333-.333h-2a.333.333,0,0,0-.333.333v2A.333.333,0,0,0,320.333,226.667Zm.333-2H322V226h-1.333Z" transform="translate(-306.667 -214.667)"/>
      <path id="Path_179" data-name="Path 179" d="M320.333,386.667h2a.333.333,0,0,0,.333-.333v-2a.333.333,0,0,0-.333-.333h-2a.333.333,0,0,0-.333.333v2A.333.333,0,0,0,320.333,386.667Zm.333-2H322V386h-1.333Z" transform="translate(-306.667 -368)"/>
      <path id="Path_180" data-name="Path 180" d="M240.333,306.667h2a.333.333,0,0,0,.333-.333v-2a.333.333,0,0,0-.333-.333h-2a.333.333,0,0,0-.333.333v2A.333.333,0,0,0,240.333,306.667Zm.333-2H242V306h-1.333Z" transform="translate(-230 -291.333)"/>
      <path id="Path_181" data-name="Path 181" d="M240.333,226.667h2a.333.333,0,0,0,.333-.333v-2a.333.333,0,0,0-.333-.333h-2a.333.333,0,0,0-.333.333v2A.333.333,0,0,0,240.333,226.667Zm.333-2H242V226h-1.333Z" transform="translate(-230 -214.667)"/>
      <path id="Path_182" data-name="Path 182" d="M240.333,386.667h2a.333.333,0,0,0,.333-.333v-2a.333.333,0,0,0-.333-.333h-2a.333.333,0,0,0-.333.333v2A.333.333,0,0,0,240.333,386.667Zm.333-2H242V386h-1.333Z" transform="translate(-230 -368)"/>
    </g>
  </g>
</svg>
