<svg xmlns="http://www.w3.org/2000/svg" width="16" height="12.713" viewBox="0 0 16 12.713">
  <g id="planning" transform="translate(-0.001 4.082)">
    <path id="Path_356" data-name="Path 356" d="M15.528-4.082H.473A.472.472,0,0,0,0-3.61V8.158a.472.472,0,0,0,.472.473H15.528A.472.472,0,0,0,16,8.158V-3.61A.472.472,0,0,0,15.528-4.082ZM15.056,7.686H.945V-3.137h14.11Zm0,0" transform="translate(0 0)" fill="#333"/>
    <path id="Path_357" data-name="Path 357" d="M84.883,81.407h3.586a.472.472,0,0,0,.472-.472V76.766a.472.472,0,0,0-.472-.472H84.883a.472.472,0,0,0-.472.472v4.168A.472.472,0,0,0,84.883,81.407Zm.473-4.168H88v3.223H85.355Zm0,0" transform="translate(-82.3 -78.367)" fill="#333"/>
    <path id="Path_358" data-name="Path 358" d="M312.914,57.995h5.165a.473.473,0,0,0,.473-.473v-7.78a.472.472,0,0,0-.473-.472h-1.126V49.05a.472.472,0,0,0-.472-.472h-1.969a.472.472,0,0,0-.472.472v.221h-1.126a.472.472,0,0,0-.472.472v7.78A.473.473,0,0,0,312.914,57.995Zm2.071-8.473h1.024v1.041h-1.024Zm-1.6.693h.654v.821a.472.472,0,0,0,.472.472h1.969a.472.472,0,0,0,.472-.472v-.821h.654V57.05h-4.22Zm0,0" transform="translate(-304.63 -51.343)" fill="#333"/>
    <path id="Path_359" data-name="Path 359" d="M106.949,316.609h2.483a.472.472,0,1,0,0-.945h-2.483a.472.472,0,0,0,0,.945Zm0,0" transform="translate(-103.814 -311.753)" fill="#333"/>
    <path id="Path_360" data-name="Path 360" d="M93.789,387.473H90.2a.473.473,0,0,0,0,.945h3.586a.473.473,0,0,0,0-.945Zm0,0" transform="translate(-87.487 -381.766)" fill="#333"/>
  </g>
</svg>
