<svg xmlns="http://www.w3.org/2000/svg" width="16" height="16.001" viewBox="0 0 16 16.001">
  <g id="contract" transform="translate(-0.018 0)">
    <g id="Group_578" data-name="Group 578" transform="translate(0.018)">
      <g id="Group_577" data-name="Group 577">
        <path id="Path_348" data-name="Path 348" d="M15.606,5.036a1.408,1.408,0,0,0-1.989,0l-1.41,1.412V2.732a1.4,1.4,0,0,0-.412-.994L10.469.412A1.4,1.4,0,0,0,9.474,0H1.424A1.408,1.408,0,0,0,.018,1.406V14.595A1.408,1.408,0,0,0,1.424,16H10.8a1.408,1.408,0,0,0,1.406-1.406V10.427l3.4-3.4A1.406,1.406,0,0,0,15.606,5.036ZM9.394.938a.512.512,0,0,1,.412.137L11.131,2.4a.512.512,0,0,1,.137.412H9.394Zm1.875,13.657a.469.469,0,0,1-.469.469H1.424a.469.469,0,0,1-.469-.469V1.406A.469.469,0,0,1,1.424.938H8.456V3.281a.469.469,0,0,0,.469.469h2.344V7.386L9.886,8.77l-.663.663a.469.469,0,0,0-.113.183L8.447,11.6a.469.469,0,0,0,.593.593l1.989-.663a.468.468,0,0,0,.183-.113l.057-.057v3.23ZM10.217,9.764l.663.663-.253.253-.994.331.331-.994Zm1.326,0L10.88,9.1l2.253-2.255.663.663Zm3.4-3.4-.483.484L13.8,6.182,14.28,5.7a.469.469,0,1,1,.663.663Z" transform="translate(-0.018)" fill="#333"/>
      </g>
    </g>
    <g id="Group_580" data-name="Group 580" transform="translate(1.893 4.688)">
      <g id="Group_579" data-name="Group 579">
        <path id="Path_349" data-name="Path 349" d="M67.05,150H60.487a.469.469,0,1,0,0,.938H67.05a.469.469,0,1,0,0-.938Z" transform="translate(-60.018 -150)" fill="#333"/>
      </g>
    </g>
    <g id="Group_582" data-name="Group 582" transform="translate(1.893 6.563)">
      <g id="Group_581" data-name="Group 581">
        <path id="Path_350" data-name="Path 350" d="M65.175,210H60.487a.469.469,0,1,0,0,.938h4.688a.469.469,0,0,0,0-.938Z" transform="translate(-60.018 -210)" fill="#333"/>
      </g>
    </g>
    <g id="Group_584" data-name="Group 584" transform="translate(1.893 8.438)">
      <g id="Group_583" data-name="Group 583">
        <path id="Path_351" data-name="Path 351" d="M65.175,270H60.487a.469.469,0,1,0,0,.938h4.688a.469.469,0,0,0,0-.938Z" transform="translate(-60.018 -270)" fill="#333"/>
      </g>
    </g>
    <g id="Group_586" data-name="Group 586" transform="translate(1.893 10.313)">
      <g id="Group_585" data-name="Group 585">
        <path id="Path_352" data-name="Path 352" d="M65.175,330H60.487a.469.469,0,1,0,0,.938h4.688a.469.469,0,1,0,0-.938Z" transform="translate(-60.018 -330)" fill="#333"/>
      </g>
    </g>
    <g id="Group_588" data-name="Group 588" transform="translate(5.643 13.188)">
      <g id="Group_587" data-name="Group 587">
        <path id="Path_353" data-name="Path 353" d="M183.3,422h-2.813a.469.469,0,0,0,0,.938H183.3a.469.469,0,0,0,0-.938Z" transform="translate(-180.018 -422)" fill="#333"/>
      </g>
    </g>
  </g>
</svg>
