<svg xmlns="http://www.w3.org/2000/svg" width="19.979" height="20" viewBox="0 0 19.979 20">
  <path id="push-pin" d="M20,8.035a.377.377,0,0,0-.23-.274,9.218,9.218,0,0,0-6.927.109L7.228,3.093A4.218,4.218,0,0,0,6.453.14.38.38,0,0,0,6.18,0a.391.391,0,0,0-.287.11L.138,5.865a.378.378,0,0,0,.032.563A4.281,4.281,0,0,0,3.085,7.2l4.8,5.641a9.889,9.889,0,0,0-.116,6.918.377.377,0,0,0,.617.127l5.5-5.5L19,19.512a.377.377,0,1,0,.533-.533l-5.12-5.12L19.9,8.378A.378.378,0,0,0,20,8.035ZM13.34,13.866,8.275,18.931a9.573,9.573,0,0,1,.389-6,.378.378,0,0,0-.057-.4L3.529,6.561a.379.379,0,0,0-.288-.133.336.336,0,0,0-.058,0A3.9,3.9,0,0,1,1,6.072L6.09.979a3.539,3.539,0,0,1,.364,2.206.376.376,0,0,0,.128.349L12.537,8.6a.381.381,0,0,0,.417.048,8.62,8.62,0,0,1,5.987-.384Z" transform="translate(-0.027 0)"/>
</svg>
