<svg xmlns="http://www.w3.org/2000/svg" width="20" height="20.01" viewBox="0 0 20 20.01">
  <g id="role" transform="translate(-0.471 0)">
    <path id="Path_125" data-name="Path 125" d="M95.538,37.235h-1v-2a.333.333,0,1,0-.665,0v2.328a.333.333,0,0,0,.333.333h1.331a.333.333,0,0,0,0-.665Zm0,0" transform="translate(-89.703 -33.523)"/>
    <path id="Path_126" data-name="Path 126" d="M19.473,3.046H19.3a2.822,2.822,0,0,0-.122-.294l.119-.118a1,1,0,0,0-.7-1.7h0a.99.99,0,0,0-.706.294l-.118.119a2.857,2.857,0,0,0-.294-.122V1.05a1,1,0,1,0-2,0v.17a2.843,2.843,0,0,0-.294.122l-.118-.119a.99.99,0,0,0-.706-.294h0a1,1,0,0,0-.7,1.7l.119.118a2.857,2.857,0,0,0-.122.294h-.17a1,1,0,1,0,0,2h.17a2.857,2.857,0,0,0,.122.294l-.119.118a.985.985,0,0,0-.195,1.134l-1.291,1.29A2.96,2.96,0,0,0,10.63,7.37h-.309a2.947,2.947,0,0,0-1.507.492L7.559,6.608a4.018,4.018,0,1,0-.469.471L8.346,8.335a1.665,1.665,0,0,0-.271.847c0,.075-.005.141-.008.21a.909.909,0,0,0-.448,0c-.464.122-.515.726-.4,1.272a1.609,1.609,0,0,0,.994.962,1.471,1.471,0,0,0,.577,1.317c.043.036.08.071.116.107a4.939,4.939,0,0,1-.681,1.318,3.862,3.862,0,0,0-2.328,1.023,3.11,3.11,0,0,0-.722,2.2c0,2.345,4.777,2.411,5.322,2.411s5.322-.066,5.322-2.411a3.111,3.111,0,0,0-.722-2.2,3.863,3.863,0,0,0-2.328-1.023,4.834,4.834,0,0,1-.685-1.334c.032-.03.063-.061.1-.092a1.476,1.476,0,0,0,.576-1.337,1.612,1.612,0,0,0,1.014-.958c.117-.53.07-1.138-.419-1.26a1.014,1.014,0,0,0-.452,0c0-.069,0-.133-.008-.209a1.659,1.659,0,0,0-.256-.821l1.3-1.3a.989.989,0,0,0,.427.1h0a.989.989,0,0,0,.706-.294l.118-.119a2.911,2.911,0,0,0,.294.122v.17a1,1,0,1,0,2,0v-.17a2.857,2.857,0,0,0,.294-.122l.118.119a.944.944,0,0,0,.707.294,1,1,0,0,0,.7-1.7l-.119-.118a2.891,2.891,0,0,0,.122-.294h.17a1,1,0,1,0,0-2Zm-18.294,1A3.326,3.326,0,1,1,4.5,7.37,3.326,3.326,0,0,1,1.179,4.044Zm6.686,6.47a1.443,1.443,0,0,1-.021-.482.5.5,0,0,1,.226.071,4.644,4.644,0,0,0,.1.747.906.906,0,0,1-.3-.335Zm3.725,3.124a7.207,7.207,0,0,0,.466.859,6.621,6.621,0,0,1-1.563.274,6.626,6.626,0,0,1-1.56-.275,7.255,7.255,0,0,0,.458-.844.981.981,0,0,0,.8.37h.593a.986.986,0,0,0,.809-.385Zm-1.1,3.527a5.49,5.49,0,0,1-1.609-1.992,6.908,6.908,0,0,0,1.609.263,6.892,6.892,0,0,0,1.609-.263A5.485,5.485,0,0,1,10.492,17.164Zm4.657.433c0,1.425-3.449,1.748-4.657,1.748S5.835,19.024,5.835,17.6a2.484,2.484,0,0,1,.542-1.748,3.2,3.2,0,0,1,1.763-.8,5.656,5.656,0,0,0,2.144,2.809l.027.014a.318.318,0,0,0,.06.03.314.314,0,0,0,.059.019.35.35,0,0,0,.064,0,.327.327,0,0,0,.061,0,.377.377,0,0,0,.119-.049l.027-.014a5.666,5.666,0,0,0,2.144-2.809,3.2,3.2,0,0,1,1.763.8,2.486,2.486,0,0,1,.541,1.748Zm-3.4-5.159a3.2,3.2,0,0,0-.54.6c-.189.257-.24.318-.432.318h-.591c-.19,0-.242-.061-.433-.318a3.177,3.177,0,0,0-.54-.6.882.882,0,0,1-.335-.906c0-.087.009-.175.009-.266a2.389,2.389,0,0,0-.067-.524,5.231,5.231,0,0,1-.083-1.526c.057-1.1,1.544-1.179,1.594-1.181h.284c.015,0,1.549.073,1.606,1.182a5.189,5.189,0,0,1-.084,1.526,2.419,2.419,0,0,0-.066.524c0,.09,0,.179.009.266a.879.879,0,0,1-.33.906Zm1.377-1.957a.858.858,0,0,1-.325.354,4.646,4.646,0,0,0,.095-.751.486.486,0,0,1,.245-.052A1.314,1.314,0,0,1,13.125,10.48Zm6.68-6.436a.333.333,0,0,1-.333.333h-.294a.5.5,0,0,0-.474.354,2.238,2.238,0,0,1-.166.4.5.5,0,0,0,.086.587l.207.205a.333.333,0,0,1-.233.567.329.329,0,0,1-.235-.1l-.205-.207a.5.5,0,0,0-.587-.086,2.247,2.247,0,0,1-.4.166.5.5,0,0,0-.355.476v.293a.333.333,0,0,1-.665,0V6.744a.5.5,0,0,0-.353-.474,2.233,2.233,0,0,1-.4-.168.508.508,0,0,0-.237-.059.492.492,0,0,0-.35.146l-.206.207a.331.331,0,1,1-.468-.469l.207-.206a.5.5,0,0,0,.086-.587,2.239,2.239,0,0,1-.166-.4.5.5,0,0,0-.477-.352h-.293a.333.333,0,0,1,0-.665h.294a.5.5,0,0,0,.474-.353,2.23,2.23,0,0,1,.166-.4.5.5,0,0,0-.087-.587l-.207-.206a.331.331,0,1,1,.468-.469L14.8,1.9a.5.5,0,0,0,.587.086,2.238,2.238,0,0,1,.4-.166.5.5,0,0,0,.356-.476V1.05a.333.333,0,0,1,.665,0v.294a.5.5,0,0,0,.354.474,2.238,2.238,0,0,1,.4.166.5.5,0,0,0,.587-.087l.206-.207a.331.331,0,1,1,.468.469l-.207.206a.5.5,0,0,0-.086.587,2.24,2.24,0,0,1,.166.4.5.5,0,0,0,.477.354h.293a.333.333,0,0,1,.333.333Zm0,0" transform="translate(0 0)"/>
    <path id="Path_127" data-name="Path 127" d="M364.128,60.086a1.663,1.663,0,1,0,1.663,1.663A1.663,1.663,0,0,0,364.128,60.086Zm0,2.661a1,1,0,1,1,.706-.292A1,1,0,0,1,364.128,62.747Zm0,0" transform="translate(-347.649 -57.705)"/>
  </g>
</svg>
