<svg xmlns="http://www.w3.org/2000/svg" width="20" height="16.054" viewBox="0 0 20 16.054">
  <g id="state" transform="translate(0 -0.5)">
    <path id="Path_81" data-name="Path 81" d="M218.417,121.945a6.24,6.24,0,0,0-1.566-2.913,9.319,9.319,0,0,1-1.2-1.773,6.745,6.745,0,0,1-.26-.669.293.293,0,0,0-.555.188,7.322,7.322,0,0,0,.284.727,9.744,9.744,0,0,0,1.272,1.89,5.727,5.727,0,0,1,1.445,2.631c.206,1.455-.748,2.833-1.742,4.119a4.388,4.388,0,0,1-1.065,1.093c-.345.215-.868,0-1.559-.055a.278.278,0,0,0-.049,0,2.018,2.018,0,0,1-2.094-1.085,5.975,5.975,0,0,0-.371-.709,1.087,1.087,0,0,0-.865-.511.63.63,0,0,0-.506.325.677.677,0,0,1-.176.189c-.064-.086-.155-.247-.226-.372-.309-.544-.733-1.289-1.46-1.345a3.678,3.678,0,0,0-.967.06.293.293,0,1,0,.108.576,3.1,3.1,0,0,1,.814-.052c.416.032.751.62,1,1.05.183.321.407.771.768.691a1.008,1.008,0,0,0,.616-.451c.02-.027.045-.062.064-.083a.585.585,0,0,1,.354.259,6.638,6.638,0,0,1,.334.647,2.6,2.6,0,0,0,2.64,1.4c.694.057,1.318.322,1.889-.034a4.9,4.9,0,0,0,1.218-1.232c1.071-1.386,2.1-2.879,1.859-4.559Zm0,0" transform="translate(-198.451 -111.364)"/>
    <path id="Path_82" data-name="Path 82" d="M.6,9.016c.013-.4.05-.431.451-.625A9.987,9.987,0,0,0,3.1,7.067c.243.289.771.893,1.121.893.633,0,2.49-2.365,2.786-4.1a1.379,1.379,0,0,0,.6.046,1.83,1.83,0,0,0,1-.795,3.383,3.383,0,0,1,1.642-.874,2.726,2.726,0,0,1,1.271-.108c-.069.257-.44.715-.429,1.171a1.754,1.754,0,0,0,.574,1.221,1.681,1.681,0,0,0,2.469-.111,1.753,1.753,0,0,0,.462-1.266,6.89,6.89,0,0,1-.1-.836c.014-.146.137-.3.213-.283s.17.172.219.254a15.817,15.817,0,0,1,1.055,1.974.293.293,0,0,0,.541-.226,16.284,16.284,0,0,0-1.093-2.05,1,1,0,0,0-.588-.524.829.829,0,0,0-.93.8,4.913,4.913,0,0,0,.1.93,1.165,1.165,0,0,1-.313.838,1.1,1.1,0,0,1-1.633.073,1.167,1.167,0,0,1-.387-.807c-.01-.389.662-1,.355-1.476a.8.8,0,0,0-.671-.3,4.642,4.642,0,0,0-3.2,1.218c-.214.252-.415.553-.66.6a1.06,1.06,0,0,1-.428-.059l-.018,0A2.841,2.841,0,0,0,4.218.5a2.8,2.8,0,0,0-1.737.6.293.293,0,1,0,.361.462,2.217,2.217,0,0,1,1.376-.473A2.255,2.255,0,0,1,6.465,3.344a5.229,5.229,0,0,1-1,2.581A6,6,0,0,1,4.218,7.357,6,6,0,0,1,2.974,5.925a5.322,5.322,0,0,1-1-2.581,2.251,2.251,0,0,1,.193-.918.293.293,0,0,0-.536-.237,2.835,2.835,0,0,0-.243,1.155A6.181,6.181,0,0,0,2.735,6.606,9.4,9.4,0,0,1,.793,7.864,1.084,1.084,0,0,0,.011,9c0,.007,0,.018,0,.033A3.124,3.124,0,0,0,.6,11.21l.011.013.311.354a4.666,4.666,0,0,1,1,1.373,1.029,1.029,0,0,1-.114.546.929.929,0,0,0-.075.759.3.3,0,0,0,.05.068,1.878,1.878,0,0,0,1.335.562c.045,0,.091,0,.137-.005a3.4,3.4,0,0,0,1.072-.321l2.342-1.007c.2-.087.4-.172.6-.252a.293.293,0,1,0-.216-.544c-.209.083-.411.17-.617.258L4.1,14.021a2.907,2.907,0,0,1-.886.275,1.307,1.307,0,0,1-.944-.32,2.186,2.186,0,0,1,.09-.271,1.387,1.387,0,0,0,.118-.95A5.038,5.038,0,0,0,1.364,11.19l-.3-.346A2.555,2.555,0,0,1,.594,9.068c0-.022,0-.04,0-.051Zm0,0" transform="translate(0)"/>
    <path id="Path_83" data-name="Path 83" d="M67.133,33.974a1.666,1.666,0,1,0-1.66-1.666A1.665,1.665,0,0,0,67.133,33.974Zm0-2.747a1.081,1.081,0,1,1-1.074,1.081A1.079,1.079,0,0,1,67.133,31.227Zm0,0" transform="translate(-62.915 -28.963)"/>
  </g>
</svg>
