<svg id="status" xmlns="http://www.w3.org/2000/svg" width="20" height="20" viewBox="0 0 20 20">
  <path id="Path_108" data-name="Path 108" d="M10,0a.333.333,0,0,0-.333.333V1.667a.333.333,0,0,0,.667,0V.675A9.333,9.333,0,1,1,.675,10.333h.992a.333.333,0,1,0,0-.667H.333A.333.333,0,0,0,0,10,10,10,0,1,0,10,0Zm0,0"/>
  <path id="Path_109" data-name="Path 109" d="M305.8,120a1.667,1.667,0,1,0-.277,3.322c.047,0,.093.006.14.006A1.667,1.667,0,0,0,305.8,120Zm-.222,2.658a1,1,0,0,1,.083-2,.729.729,0,0,1,.084,0,1,1,0,1,1-.167,1.993Zm0,0" transform="translate(-291.329 -114.996)"/>
  <path id="Path_110" data-name="Path 110" d="M168.933,143.213a1.024,1.024,0,0,0-1.414,0l-2.239,2.239a.833.833,0,0,0,1.179,1.178l1.767-1.767,1.317,1.316A.833.833,0,0,0,170.72,145Zm1.3,2.5a.159.159,0,0,1-.222,0l-1.552-1.553a.334.334,0,0,0-.471,0l-2,2a.167.167,0,1,1-.236-.236l2.239-2.239a.334.334,0,0,1,.471,0l1.788,1.788a.158.158,0,0,1,.047.116.17.17,0,0,1-.061.124Zm0,0" transform="translate(-158.162 -136.975)"/>
  <path id="Path_111" data-name="Path 111" d="M219.6,259.158h0a.826.826,0,0,0,.589-.244l1.764-1.764a1,1,0,0,0,0-1.414l-2.239-2.239a.853.853,0,0,0-1.178,0,.833.833,0,0,0,0,1.178l1.767,1.767-1.292,1.292a.836.836,0,0,0-.006,1.172A.827.827,0,0,0,219.6,259.158Zm-.114-.95,1.528-1.528a.333.333,0,0,0,0-.471l-2-2a.167.167,0,1,1,.236-.236l2.239,2.239a.333.333,0,0,1,0,.471l-1.764,1.762a.164.164,0,0,1-.117.049.146.146,0,0,1-.12-.05.167.167,0,0,1,0-.232Zm0,0" transform="translate(-209.201 -242.708)"/>
  <path id="Path_112" data-name="Path 112" d="M299.5,227a.833.833,0,1,0,0-1.667h-1.833v-1a.333.333,0,0,0-.518-.277l-1,.667A.333.333,0,0,0,296,225v1a1,1,0,0,0,1,1Zm-2.833-1v-.822l.333-.222v.71a.333.333,0,0,0,.333.333H299.5a.167.167,0,0,1,0,.333H297A.333.333,0,0,1,296.667,226Zm0,0" transform="translate(-283.667 -214.667)"/>
  <path id="Path_113" data-name="Path 113" d="M117.649,288.527c-.259-.259-.564-.571-.64-.66a.342.342,0,0,0-.051-.065.333.333,0,0,0-.471,0l-3.638,3.639a.833.833,0,1,0,1.179,1.179L117.649,289a.333.333,0,0,0,0-.471Zm-4.092,3.621a.167.167,0,1,1-.236-.236l3.389-3.388c.067.07.144.149.233.238Zm0,0" transform="translate(-107.913 -275.717)"/>
  <path id="Path_114" data-name="Path 114" d="M192.276,5.7a.349.349,0,0,0,.058,0,.333.333,0,0,0,.27-.386l-.233-1.313a.333.333,0,0,0-.656.116l.233,1.313a.333.333,0,0,0,.328.275Zm0,0" transform="translate(-183.724 -3.57)"/>
  <path id="Path_115" data-name="Path 115" d="M153.178,15.83a.333.333,0,0,0,.313.219.32.32,0,0,0,.114-.02.333.333,0,0,0,.2-.427l-.457-1.253a.333.333,0,0,0-.626.228Zm0,0" transform="translate(-146.342 -13.547)"/>
  <path id="Path_116" data-name="Path 116" d="M116.735,32.778a.333.333,0,1,0,.577-.333l-.667-1.155a.333.333,0,0,0-.577.333Zm0,0" transform="translate(-111.19 -29.828)"/>
  <path id="Path_117" data-name="Path 117" d="M83.982,56.049a.334.334,0,0,0,.512-.428L83.635,54.6a.333.333,0,0,0-.51.428Zm0,0" transform="translate(-79.594 -52.218)"/>
  <path id="Path_118" data-name="Path 118" d="M55.546,84.454a.333.333,0,0,0,.428-.511l-1.021-.857a.333.333,0,0,0-.428.511Zm0,0" transform="translate(-52.144 -79.554)"/>
  <path id="Path_119" data-name="Path 119" d="M31.3,116.646l1.155.667a.333.333,0,1,0,.333-.577l-1.155-.667a.333.333,0,0,0-.333.577Zm0,0" transform="translate(-29.836 -111.191)"/>
  <path id="Path_120" data-name="Path 120" d="M14.349,153.348l1.253.456a.328.328,0,0,0,.114.02.333.333,0,0,0,.114-.647l-1.253-.456a.333.333,0,0,0-.228.626Zm0,0" transform="translate(-13.547 -146.341)"/>
  <path id="Path_121" data-name="Path 121" d="M3.8,192.334l1.313.232a.369.369,0,0,0,.058.005.333.333,0,0,0,.058-.662l-1.313-.233a.333.333,0,1,0-.116.657Zm0,0" transform="translate(-3.376 -183.685)"/>
</svg>
