<svg xmlns="http://www.w3.org/2000/svg" width="14.609" height="20" viewBox="0 0 14.609 20">
  <path id="street" d="M22.7,5.667l-2-2H15.557V3.3a1.667,1.667,0,1,0-.667,0v.367h-2.62a1.048,1.048,0,0,0-1.047,1.047v.953H10.086l-2,2,2,2h4.8v7H13.224V18h-1v2h6V18h-1V16.667H15.557v-7H18.51a1.048,1.048,0,0,0,1.047-1.047V7.667H20.7Zm-8.471-4a1,1,0,1,1,1,1A1,1,0,0,1,14.224,1.667Zm3.333,17v.667H12.891v-.667h4.667Zm-1-.667H13.891v-.667h2.667Zm2.333-9.381A.381.381,0,0,1,18.51,9H10.362L9.029,7.667l1.333-1.333H18.51a.381.381,0,0,1,.38.381V8.619ZM19.557,7V6.714A1.048,1.048,0,0,0,18.51,5.667h-6.62V4.714a.381.381,0,0,1,.38-.381h8.148l1.333,1.333L20.419,7Z" transform="translate(-8.086)"/>
</svg>
